<svg xmlns="http://www.w3.org/2000/svg" width="24.333" height="26.354" viewBox="0 0 24.333 26.354">
  <path id="Path_15" data-name="Path 15" d="M-304.694,217.839l-1.682-1.237c.019-.243.04-.487.04-.751s-.017-.509-.04-.753l1.682-1.237a2.5,2.5,0,0,0,.69-3.244l-1.5-2.676a2.443,2.443,0,0,0-3.163-1.034l-1.865.872a9.757,9.757,0,0,0-1.156-.69l-.2-2.169a2.47,2.47,0,0,0-2.456-2.25h-3a2.468,2.468,0,0,0-2.454,2.25l-.2,2.169a9.752,9.752,0,0,0-1.156.69l-1.865-.872a2.443,2.443,0,0,0-3.163,1.034l-1.5,2.676a2.491,2.491,0,0,0,.688,3.239l1.682,1.237c-.019.243-.04.487-.04.751s.017.509.04.753L-327,217.833a2.5,2.5,0,0,0-.688,3.244l1.5,2.676a2.424,2.424,0,0,0,3.163,1.034l1.861-.872a9.757,9.757,0,0,0,1.156.69l.2,2.169a2.47,2.47,0,0,0,2.456,2.25h3a2.468,2.468,0,0,0,2.454-2.25l.2-2.169a9.755,9.755,0,0,0,1.156-.69l1.865.872a2.424,2.424,0,0,0,3.163-1.034l1.5-2.676A2.491,2.491,0,0,0-304.694,217.839Zm-11.151,3.077a5.069,5.069,0,0,1-5.069-5.069,5.069,5.069,0,0,1,5.069-5.069,5.069,5.069,0,0,1,5.069,5.069A5.069,5.069,0,0,1-315.845,220.916Z" transform="translate(328.012 -202.67)" fill="#fff"/>
</svg>
