<svg xmlns="http://www.w3.org/2000/svg" width="18.555" height="17" viewBox="0 0 18.555 17">
  <g id="Group_57" data-name="Group 57" transform="translate(-1097.079 -202.849)">
    <path id="Path_48" data-name="Path 48" d="M82.1,81.889H71.041a2.28,2.28,0,0,0-4.323,0H64.993a.726.726,0,1,0,0,1.452h1.726a2.28,2.28,0,0,0,4.323,0H82.1a.726.726,0,1,0,0-1.452ZM68.88,83.444a.829.829,0,1,1,.829-.829A.83.83,0,0,1,68.88,83.444Z" transform="translate(1032.812 122.515)" fill="#fff"/>
    <path id="Path_49" data-name="Path 49" d="M82.1,210.422H80.37a2.28,2.28,0,0,0-4.323,0H64.993a.726.726,0,1,0,0,1.452H76.047a2.28,2.28,0,0,0,4.323,0H82.1a.726.726,0,1,0,0-1.452Zm-3.887,1.555a.829.829,0,1,1,.829-.829A.83.83,0,0,1,78.209,211.977Z" transform="translate(1032.812 0.202)" fill="#fff"/>
    <path id="Path_50" data-name="Path 50" d="M82.1,338.955H74.151a2.28,2.28,0,0,0-4.323,0H64.993a.726.726,0,1,0,0,1.452h4.835a2.28,2.28,0,0,0,4.323,0H82.1a.726.726,0,1,0,0-1.452ZM71.99,340.51a.829.829,0,1,1,.829-.829A.83.83,0,0,1,71.99,340.51Z" transform="translate(1032.812 -122.112)" fill="#fff"/>
  </g>
</svg>
