<svg id="Voltmeter_2_" xmlns="http://www.w3.org/2000/svg" xmlns:xlink="http://www.w3.org/1999/xlink" width="39.264" height="39.264" viewBox="0 0 39.264 39.264">
  <defs>
    <linearGradient id="linear-gradient" x1="0.826" x2="0.811" y2="1" gradientUnits="objectBoundingBox">
      <stop offset="0" stop-color="#ff5046"/>
      <stop offset="1" stop-color="#e63024"/>
    </linearGradient>
  </defs>
  <g id="Group_88" data-name="Group 88">
    <g id="Group_87" data-name="Group 87">
      <path id="Path_56" data-name="Path 56" d="M38.114,0H1.15A1.15,1.15,0,0,0,0,1.15V35.813a1.15,1.15,0,0,0,1.15,1.15H4.678v1.15a1.15,1.15,0,0,0,1.15,1.15h4.6a1.15,1.15,0,0,0,1.15-1.15v-1.15h16.1v1.15a1.15,1.15,0,0,0,1.15,1.15h4.6a1.15,1.15,0,0,0,1.15-1.15v-1.15h3.528a1.15,1.15,0,0,0,1.15-1.15V1.15A1.15,1.15,0,0,0,38.114,0Z" fill="url(#linear-gradient)"/>
    </g>
  </g>
  <g id="Group_90" data-name="Group 90" transform="translate(4.678 4.678)">
    <g id="Group_89" data-name="Group 89">
      <path id="Path_57" data-name="Path 57" d="M89.758,61H62.15A1.139,1.139,0,0,0,61,62.15v13.8a1.139,1.139,0,0,0,1.15,1.15H89.758a1.139,1.139,0,0,0,1.15-1.15V62.15A1.139,1.139,0,0,0,89.758,61Zm-4.6,11.5H66.752a1.15,1.15,0,1,1,0-2.3H67.9v-1.15a1.15,1.15,0,1,1,2.3,0V70.2h2.3v-1.15a1.15,1.15,0,1,1,2.3,0V70.2h2.3v-1.15a1.15,1.15,0,1,1,2.3,0V70.2h2.3v-1.15a1.15,1.15,0,1,1,2.3,0V70.2h1.15a1.15,1.15,0,1,1,0,2.3Zm-16.1,9.2a3.411,3.411,0,0,0-1.478.346l-2.309-2.309a1.15,1.15,0,0,0-1.627,1.627l2.309,2.309a3.411,3.411,0,0,0-.346,1.478,3.451,3.451,0,1,0,3.451-3.451Zm13.8,0a3.411,3.411,0,0,0-1.478.346l-2.309-2.309a1.15,1.15,0,0,0-1.627,1.627l2.309,2.309a3.411,3.411,0,0,0-.346,1.478,3.451,3.451,0,1,0,3.451-3.451Z" transform="translate(-61 -61)" fill="#fff"/>
    </g>
  </g>
</svg>
