<svg xmlns="http://www.w3.org/2000/svg" xmlns:xlink="http://www.w3.org/1999/xlink" width="65.723" height="65.723" viewBox="0 0 65.723 65.723">
  <defs>
    <linearGradient id="linear-gradient" x1="0.5" x2="0.5" y2="1" gradientUnits="objectBoundingBox">
      <stop offset="0" stop-color="#00af91"/>
      <stop offset="1" stop-color="#007965"/>
    </linearGradient>
    <filter id="Path_58" x="0" y="0" width="65.723" height="65.723" filterUnits="userSpaceOnUse">
      <feOffset dy="5" input="SourceAlpha"/>
      <feGaussianBlur stdDeviation="5" result="blur"/>
      <feFlood flood-color="#00af91" flood-opacity="0.2"/>
      <feComposite operator="in" in2="blur"/>
      <feComposite in="SourceGraphic"/>
    </filter>
  </defs>
  <g id="Group_15" data-name="Group 15" transform="translate(679 -927)">
    <g transform="matrix(1, 0, 0, 1, -679, 927)" filter="url(#Path_58)">
      <path id="Path_58-2" data-name="Path 58" d="M6,0H29.723a6,6,0,0,1,6,6V29.723a6,6,0,0,1-6,6H6a6,6,0,0,1-6-6V6A6,6,0,0,1,6,0Z" transform="translate(15 10)" fill="url(#linear-gradient)"/>
    </g>
    <g id="Group_7" data-name="Group 7" transform="translate(-656 945)">
      <path id="Path_13" data-name="Path 13" d="M17.571,0H2.691A2.694,2.694,0,0,0,0,2.691V13.772A1.426,1.426,0,0,0,1.425,15.2H4.116v3.641A1.426,1.426,0,0,0,5.54,20.262h13.3a1.426,1.426,0,0,0,1.425-1.425V2.691A2.694,2.694,0,0,0,17.571,0ZM4.116,13.93H1.425a.158.158,0,0,1-.158-.158V2.691a1.425,1.425,0,0,1,2.849,0Z" transform="translate(0 0)" fill="#fff"/>
      <path id="Path_14" data-name="Path 14" d="M210.715,113.651c.009.483-.023,1.065.022,1.645a1.921,1.921,0,0,0,1.494,1.663,1.831,1.831,0,0,0,1.952-.872c.04-.069.069-.144.1-.215s.018-.113-.076-.131a1.216,1.216,0,0,1-1.029-.937,1.272,1.272,0,1,1,2.513-.223,4.87,4.87,0,0,1-.09,1.307,3.065,3.065,0,0,1-2.353,2.278,3.121,3.121,0,0,1-3.733-2.522,5.14,5.14,0,0,1-.052-.717c-.025-.923,0-1.845,0-2.768,0-.112-.029-.141-.139-.139-.35.008-.7.005-1.05,0a.63.63,0,0,1-.682-.625.618.618,0,0,1,.646-.631c.367,0,.733,0,1.1,0,.087,0,.125-.012.123-.114,0-.767,0-1.534,0-2.3a.62.62,0,1,0-1.237-.082.653.653,0,0,1-.319.556.605.605,0,0,1-.918-.53,1.86,1.86,0,0,1,3.706-.252,5.443,5.443,0,0,1,.025.757q0,.91-.011,1.82c0,.111.022.148.142.148.771-.006,1.542,0,2.313,0a.625.625,0,0,1,.624.842.648.648,0,0,1-.671.414h-2.238c-.164,0-.167,0-.167.165C210.714,112.643,210.715,113.1,210.715,113.651Z" transform="translate(-198.799 -102.201)" fill="url(#linear-gradient)"/>
    </g>
  </g>
</svg>
