<svg xmlns="http://www.w3.org/2000/svg" xmlns:xlink="http://www.w3.org/1999/xlink" width="65.723" height="65.723" viewBox="0 0 65.723 65.723">
  <defs>
    <linearGradient id="linear-gradient" x1="0.5" x2="0.5" y2="1" gradientUnits="objectBoundingBox">
      <stop offset="0" stop-color="#00af91"/>
      <stop offset="1" stop-color="#007965"/>
    </linearGradient>
    <filter id="Rectangle_5" x="0" y="0" width="65.723" height="65.723" filterUnits="userSpaceOnUse">
      <feOffset dy="5" input="SourceAlpha"/>
      <feGaussianBlur stdDeviation="5" result="blur"/>
      <feFlood flood-color="#00af91" flood-opacity="0.141"/>
      <feComposite operator="in" in2="blur"/>
      <feComposite in="SourceGraphic"/>
    </filter>
  </defs>
  <g id="Group_17" data-name="Group 17" transform="translate(412 -927)">
    <g id="Group_16" data-name="Group 16" transform="translate(267)">
      <g transform="matrix(1, 0, 0, 1, -679, 927)" filter="url(#Rectangle_5)">
        <rect id="Rectangle_5-2" data-name="Rectangle 5" width="35.723" height="35.723" rx="6" transform="translate(15 10)" fill="url(#linear-gradient)"/>
      </g>
    </g>
    <path id="XMLID_49_" d="M23.518,20.188v.675a1.071,1.071,0,0,1-.908,1.06l-.166.613a.763.763,0,0,1-.737.566H20.058a.763.763,0,0,1-.737-.566l-.162-.613a1.075,1.075,0,0,1-.913-1.065v-.675a.649.649,0,0,1,.651-.651h3.969A.656.656,0,0,1,23.518,20.188Zm3.056-9.1a5.663,5.663,0,0,1-1.6,3.95,5.219,5.219,0,0,0-1.4,2.833.941.941,0,0,1-.932.794H19.117a.932.932,0,0,1-.927-.789,5.277,5.277,0,0,0-1.407-2.843,5.691,5.691,0,1,1,9.792-3.945ZM21.527,7.643A.642.642,0,0,0,20.885,7a4.111,4.111,0,0,0-4.107,4.107.642.642,0,0,0,1.283,0,2.827,2.827,0,0,1,2.824-2.824A.639.639,0,0,0,21.527,7.643Zm-.642-4.112a.642.642,0,0,0,.642-.642V.642a.642.642,0,0,0-1.283,0V2.89A.642.642,0,0,0,20.885,3.532Zm-7.553,7.553a.642.642,0,0,0-.642-.642H10.442a.642.642,0,1,0,0,1.283H12.69A.639.639,0,0,0,13.332,11.085Zm18-.642H29.08a.642.642,0,0,0,0,1.283h2.248a.642.642,0,1,0,0-1.283ZM14.639,16.428,13.047,18.02a.64.64,0,0,0,.9.908l1.592-1.592a.64.64,0,1,0-.9-.908Zm12.04-10.5a.641.641,0,0,0,.452-.185l1.592-1.592a.642.642,0,0,0-.908-.908L26.223,4.839a.64.64,0,0,0,0,.908A.652.652,0,0,0,26.679,5.932Zm-12.04-.19a.64.64,0,0,0,.9-.908L13.95,3.242a.642.642,0,0,0-.908.908ZM27.131,16.428a.642.642,0,1,0-.908.908l1.592,1.592a.64.64,0,1,0,.9-.908Z" transform="translate(-399.8 943)" fill="#fff"/>
  </g>
</svg>
