<svg id="lightning" xmlns="http://www.w3.org/2000/svg" width="28.679" height="46.17" viewBox="0 0 28.679 46.17">
  <path id="Path_16" data-name="Path 16" d="M107.722,45.929l17.809-30.664a.965.965,0,0,0-.964-1.44l-11.846,1.61L115.551.575a.482.482,0,0,0-.858-.382L97.183,23.306a.965.965,0,0,0,.87,1.542l13.06-1.375-4.281,22.121A.482.482,0,0,0,107.722,45.929Z" transform="translate(-96.985 0)" fill="#ffde50"/>
  <path id="Path_17" data-name="Path 17" d="M102.659,21.684a.4.4,0,0,1-.37-.61L115.38.127a.475.475,0,0,0-.687.081L97.183,23.322a.965.965,0,0,0,.87,1.542l13.06-1.375L106.831,45.61a.469.469,0,0,0,.379.559l7.337-23.216a1.608,1.608,0,0,0-1.661-2.087Z" transform="translate(-96.985 -0.016)" fill="#ffc850"/>
</svg>
