<svg id="taka" xmlns="http://www.w3.org/2000/svg" width="39.333" height="39.333" viewBox="0 0 39.333 39.333">
  <g id="Group_27" data-name="Group 27">
    <path id="Path_19" data-name="Path 19" d="M39.333,19.667A19.7,19.7,0,1,1,32.981,5.194,19.667,19.667,0,0,1,39.333,19.667Z" fill="#f0cd00"/>
    <path id="Path_20" data-name="Path 20" d="M56.109,19.823A19.666,19.666,0,0,1,37.175,39.476a19.667,19.667,0,0,1,0-39.306A19.666,19.666,0,0,1,56.109,19.823Z" transform="translate(-16.776 -0.156)" fill="#ffde50"/>
    <path id="Path_21" data-name="Path 21" d="M63.939,36.161,36.151,63.949a19.751,19.751,0,0,1-2.491-3.359L60.58,33.67A19.66,19.66,0,0,1,63.939,36.161Z" transform="translate(-30.958 -30.967)" fill="#ffea94"/>
    <path id="Path_22" data-name="Path 22" d="M123.87,98.37l-25.5,25.5a19.64,19.64,0,0,1-4.979-2.861l27.62-27.62A19.6,19.6,0,0,1,123.87,98.37Z" transform="translate(-85.893 -85.893)" fill="#ffea94"/>
    <path id="Path_23" data-name="Path 23" d="M85.184,69.9a15.282,15.282,0,0,1-30.563.188c0-.063,0-.125,0-.188A15.282,15.282,0,0,1,69.9,54.62c.063,0,.126,0,.189,0a15.211,15.211,0,0,1,8.615,2.787,15.384,15.384,0,0,1,4.21,4.478A15.208,15.208,0,0,1,85.184,69.9Z" transform="translate(-50.236 -50.236)" fill="#faa300"/>
    <path id="Path_24" data-name="Path 24" d="M80.708,59.1,59.1,80.708A15.227,15.227,0,0,1,54.622,70.09c0-.063,0-.125,0-.188A15.282,15.282,0,0,1,69.9,54.62c.063,0,.126,0,.189,0a15.211,15.211,0,0,1,8.615,2.787A15.423,15.423,0,0,1,80.708,59.1Z" transform="translate(-50.236 -50.236)" fill="#ffbd00"/>
    <path id="Path_25" data-name="Path 25" d="M250.39,69.9a15.283,15.283,0,0,1-15.282,15.282q-.435,0-.863-.024a15.283,15.283,0,0,0,0-30.516q.429-.024.863-.024A15.283,15.283,0,0,1,250.39,69.9Z" transform="translate(-215.442 -50.236)" fill="#f68e00"/>
  </g>
  <path id="Path_26" data-name="Path 26" d="M148.368,103.594h-2.616a1.605,1.605,0,0,0,0,3.211h.918a10.106,10.106,0,0,1-4.178,7.218,1.55,1.55,0,0,1-1.647.139,1.53,1.53,0,0,1-.86-1.4v-7.74h1.1a1.605,1.605,0,1,0,0-3.211h-1.1V94.5a1.605,1.605,0,0,0-1.605-1.605h-3.686a1.605,1.605,0,1,0,0,3.211h2.081v5.708H133.5a1.605,1.605,0,0,0,0,3.211h3.27v7.74a4.779,4.779,0,0,0,7.621,3.847,13.56,13.56,0,0,0,5.578-11.409A1.605,1.605,0,0,0,148.368,103.594Z" transform="translate(-121.31 -85.435)" fill="#f68e00"/>
  <path id="Path_27" data-name="Path 27" d="M173.37,103.594h-2.616a1.605,1.605,0,1,0,0,3.211h.918a10.107,10.107,0,0,1-4.178,7.218,1.55,1.55,0,0,1-1.647.139,1.53,1.53,0,0,1-.86-1.4v-7.74h1.1a1.605,1.605,0,0,0,0-3.211h-1.1V94.5a1.605,1.605,0,0,0-1.605-1.605h-3.686a1.605,1.605,0,1,0,0,3.211h2.081v5.708h-3.27a1.605,1.605,0,0,0,0,3.211h3.27v7.74a4.779,4.779,0,0,0,7.621,3.847,13.56,13.56,0,0,0,5.578-11.409A1.605,1.605,0,0,0,173.37,103.594Z" transform="translate(-144.305 -85.435)" fill="#ffea94"/>
</svg>
