<svg xmlns="http://www.w3.org/2000/svg" width="19.947" height="12.706" viewBox="0 0 19.947 12.706">
  <g id="Live_1_" transform="translate(-91.16 0)">
    <g id="Group_31" data-name="Group 31" transform="translate(91.16 0)" opacity="0.65">
      <path id="Path_29" data-name="Path 29" d="M93.147,12.343a10.027,10.027,0,0,1,0-11.981A.908.908,0,1,1,94.6,1.452a8.2,8.2,0,0,0,0,9.8.908.908,0,1,1-1.452,1.09Z" transform="translate(-91.161 0)" fill="#fff"/>
    </g>
    <g id="Group_32" data-name="Group 32" transform="translate(107.488 0)" opacity="0.65">
      <path id="Path_30" data-name="Path 30" d="M361.379,12.53a.909.909,0,0,1-.181-1.271,8.2,8.2,0,0,0,0-9.8A.908.908,0,0,1,362.65.368a10.027,10.027,0,0,1,0,11.981.908.908,0,0,1-1.271.181Z" transform="translate(-361.017 -0.006)" fill="#fff"/>
    </g>
    <g id="Group_33" data-name="Group 33" transform="translate(94.777 1.816)" opacity="0.9">
      <path id="Path_31" data-name="Path 31" d="M152.549,38.787a6.342,6.342,0,0,1,0-8.471.908.908,0,1,1,1.353,1.211,4.53,4.53,0,0,0,0,6.05.908.908,0,1,1-1.353,1.211Z" transform="translate(-150.927 -30.014)" fill="#fff"/>
    </g>
    <g id="Group_34" data-name="Group 34" transform="translate(104.286 1.815)" opacity="0.9">
      <path id="Path_32" data-name="Path 32" d="M308.395,38.847a.908.908,0,0,1-.071-1.282,4.53,4.53,0,0,0,0-6.05.908.908,0,1,1,1.353-1.211,6.342,6.342,0,0,1,0,8.471A.908.908,0,0,1,308.395,38.847Z" transform="translate(-308.092 -30.003)" fill="#fff"/>
    </g>
    <g id="Group_35" data-name="Group 35" transform="translate(98.411 3.63)">
      <path id="Path_33" data-name="Path 33" d="M213.723,65.445a2.723,2.723,0,1,1,2.723-2.723A2.726,2.726,0,0,1,213.723,65.445Z" transform="translate(-211 -60)" fill="#fff"/>
    </g>
  </g>
</svg>
