<?xml version="1.0" encoding="utf-8"?>
<!-- Generator: Adobe Illustrator 22.0.1, SVG Export Plug-In . SVG Version: 6.00 Build 0)  -->
<svg version="1.1" id="Layer_1" xmlns="http://www.w3.org/2000/svg" xmlns:xlink="http://www.w3.org/1999/xlink" x="0px" y="0px"
	 viewBox="0 0 23.2 27.9" style="enable-background:new 0 0 23.2 27.9;" xml:space="preserve">
<style type="text/css">
	.st0{fill:url(#SVGID_1_);}
	.st1{fill:url(#SVGID_2_);}
</style>
<g>
	<linearGradient id="SVGID_1_" gradientUnits="userSpaceOnUse" x1="14.3015" y1="3.2687" x2="14.3015" y2="23.3812">
		<stop  offset="0" style="stop-color:#00AF91"/>
		<stop  offset="1" style="stop-color:#007965"/>
	</linearGradient>
	<path class="st0" d="M11.7,25.3c-1.9-0.1-3.7-0.5-5.4-1.5c-0.6-0.3-0.8-0.9-0.6-1.5c0.2-0.6,0.7-1,1.3-0.9c0.2,0,0.4,0.1,0.6,0.2
		c5.1,2.7,11.3,0,12.7-5.6c1.3-5-2.1-10-7.1-10.8c-2-0.3-3.9,0-5.7,1c-0.8,0.4-1.7,0-1.9-0.9C5.4,4.7,5.7,4.2,6.3,3.9
		C7.6,3.2,9,2.7,10.4,2.6c3.6-0.3,6.8,0.7,9.4,3.4c3.1,3.2,4,7,2.7,11.2C21.2,21.4,18.3,24,14,25C13.2,25.2,12.4,25.2,11.7,25.3z"/>
	<linearGradient id="SVGID_2_" gradientUnits="userSpaceOnUse" x1="9.1513" y1="3.2687" x2="9.1513" y2="23.3812">
		<stop  offset="0" style="stop-color:#00AF91"/>
		<stop  offset="1" style="stop-color:#007965"/>
	</linearGradient>
	<path class="st1" d="M7.9,12.6c0.1,0,0.3,0,0.4,0c2.8,0,5.6,0,8.4,0c0.7,0,1.2,0.4,1.3,1.1c0.1,0.7-0.4,1.3-1.1,1.4
		c-0.1,0-0.3,0-0.4,0c-2.7,0-5.5,0-8.2,0c-0.1,0-0.2,0-0.4,0c0,0.1,0,0.2,0,0.3c0,1.1,0,2.2,0,3.4c0,0.6-0.3,1.1-0.8,1.3
		c-0.5,0.2-1,0.1-1.4-0.3c-1.6-1.6-3.3-3.3-4.9-4.9c-0.6-0.6-0.6-1.3,0-1.9C2.4,11.3,4,9.7,5.7,8c0.4-0.4,1-0.6,1.5-0.3
		c0.5,0.2,0.8,0.7,0.8,1.3c0,1.1,0,2.2,0,3.3C7.9,12.4,7.9,12.5,7.9,12.6z"/>
</g>
</svg>
