<?xml version="1.0" encoding="utf-8"?>
<!-- Generator: Adobe Illustrator 22.0.1, SVG Export Plug-In . SVG Version: 6.00 Build 0)  -->
<svg version="1.1" id="Layer_1" xmlns="http://www.w3.org/2000/svg" xmlns:xlink="http://www.w3.org/1999/xlink" x="0px" y="0px"
	 viewBox="0 0 23.2 23.3" style="enable-background:new 0 0 23.2 23.3;" xml:space="preserve">
<style type="text/css">
	.st0{fill:url(#SVGID_1_);}
	.st1{fill:url(#SVGID_2_);}
</style>
<g>
	
		<linearGradient id="SVGID_1_" gradientUnits="userSpaceOnUse" x1="14.35" y1="1.1486" x2="14.35" y2="20.9766" gradientTransform="matrix(-1 0 0 1 23.3809 0)">
		<stop  offset="0" style="stop-color:#00AF91"/>
		<stop  offset="1" style="stop-color:#007965"/>
	</linearGradient>
	<path class="st0" d="M11.6,22.9c1.9-0.1,3.7-0.5,5.4-1.4c0.6-0.3,0.8-0.9,0.6-1.5c-0.2-0.6-0.7-0.9-1.3-0.9c-0.2,0-0.4,0.1-0.6,0.2
		c-5,2.7-11.2,0-12.6-5.6C1.9,8.8,5.2,3.8,10.1,3c2-0.3,3.8,0,5.6,0.9c0.8,0.4,1.7,0,1.9-0.9c0.1-0.5-0.2-1.1-0.7-1.4
		c-1.3-0.7-2.7-1.2-4.1-1.3C9.3,0.2,6.1,1.2,3.6,3.8c-3,3.1-4,6.9-2.7,11.1c1.3,4.2,4.2,6.7,8.4,7.7C10.1,22.7,10.9,22.8,11.6,22.9z
		"/>
	
		<linearGradient id="SVGID_2_" gradientUnits="userSpaceOnUse" x1="9.2727" y1="1.1486" x2="9.2727" y2="20.9766" gradientTransform="matrix(-1 0 0 1 23.3809 0)">
		<stop  offset="0" style="stop-color:#00AF91"/>
		<stop  offset="1" style="stop-color:#007965"/>
	</linearGradient>
	<path class="st1" d="M15.3,10.4c-0.1,0-0.3,0-0.4,0c-2.7,0-5.5,0-8.2,0c-0.7,0-1.2,0.4-1.3,1.1c-0.1,0.7,0.4,1.3,1,1.4
		c0.1,0,0.3,0,0.4,0c2.7,0,5.4,0,8.1,0c0.1,0,0.2,0,0.4,0c0,0.1,0,0.2,0,0.3c0,1.1,0,2.2,0,3.3c0,0.6,0.3,1.1,0.8,1.2
		c0.5,0.2,1,0.1,1.4-0.3c1.6-1.6,3.2-3.2,4.9-4.9c0.6-0.6,0.6-1.3,0-1.9c-1.6-1.6-3.2-3.2-4.9-4.9c-0.4-0.4-0.9-0.5-1.4-0.3
		c-0.5,0.2-0.8,0.7-0.8,1.2c0,1.1,0,2.2,0,3.3C15.3,10.1,15.3,10.2,15.3,10.4z"/>
</g>
</svg>
